<svg style="enable-background:new 0 0 512 512" viewBox="0 0 512 512" xml:space="preserve" xmlns="http://www.w3.org/2000/svg"><style>.st0{fill:#16ade1}.st1{fill:#1b3954}</style><g id="Layer_2"><path class="st0" d="M439.66 316.24H294.28a7 7 0 1 1 0-14h138.37v-41.19H301.28V273a7 7 0 1 1-14 0v-18.95a7 7 0 0 1 7-7h145.37a7 7 0 0 1 7 7v55.19a7 7 0 0 1-6.99 7zM217.72 316.24H72.34a7 7 0 0 1-7-7v-55.19a7 7 0 0 1 7-7h55.55a7 7 0 1 1 0 14H79.34v41.19h131.37v-41.19h-38.23a7 7 0 1 1 0-14h45.23a7 7 0 0 1 7 7v55.19a7 7 0 0 1-6.99 7zM439.66 408.33H294.28a7 7 0 0 1-7-7v-55.19a7 7 0 0 1 7-7h145.37a7 7 0 0 1 7 7v55.19c.01 3.87-3.13 7-6.99 7zm-138.38-14h131.37v-41.19H301.28v41.19zM217.72 408.33a7 7 0 0 1-7-7v-48.19H79.34v41.19h106.98a7 7 0 1 1 0 14H72.34a7 7 0 0 1-7-7v-55.19a7 7 0 0 1 7-7h145.37a7 7 0 0 1 7 7v55.19c.01 3.87-3.13 7-6.99 7z"/><path class="st1" d="M439.66 454.34H72.34a7 7 0 0 1-7-7V224.36a7 7 0 0 1 2.84-5.63 116.2 116.2 0 0 0 46.95-93.08V64.66a7 7 0 0 1 7-7h56.63a7 7 0 0 1 7 7 70.33 70.33 0 0 0 70.25 70.25 70.46 70.46 0 0 0 63.91-41.05 7 7 0 1 1 12.73 5.83 84.52 84.52 0 0 1-76.64 49.23c-44.1 0-80.39-34.05-83.96-77.25h-42.92v53.99c0 39.79-18.54 77.71-49.78 102.18v212.51h353.31V227.83a130.5 130.5 0 0 1-35.88-43.74 130.51 130.51 0 0 1-13.9-58.43v-54h-49.63a7 7 0 1 1 0-14h56.63a7 7 0 0 1 7 7v60.99c0 18.01 4.29 36.03 12.4 52.13a116.48 116.48 0 0 0 34.55 40.95 7.02 7.02 0 0 1 2.84 5.63v222.98a7.02 7.02 0 0 1-7.01 7z"/><path class="st1" d="M256 454.34a7 7 0 0 1-7-7V141.9a7 7 0 1 1 14 0v305.44a7 7 0 0 1-7 7z"/><path class="st0" d="M149.68 261.05a7 7 0 1 1 7-7 7.08 7.08 0 0 1-4.32 6.46 7.6 7.6 0 0 1-2.68.54z"/><path class="st1" d="M347.83 202.35h-43.11a7 7 0 1 1 0-14h43.11a7 7 0 1 1 0 14zM165.06 202.35a7.04 7.04 0 0 1-4.95-11.95 7.07 7.07 0 0 1 7.62-1.52 6.7 6.7 0 0 1 2.28 1.52 7.06 7.06 0 0 1 2.05 4.95 7.08 7.08 0 0 1-3.12 5.82 6.66 6.66 0 0 1-2.52 1.04c-.45.09-.91.14-1.36.14zM191.57 202.35a7 7 0 1 1 7-7 6.98 6.98 0 0 1-1.18 3.88 7 7 0 0 1-5.82 3.12zM217.72 202.35a7 7 0 1 1 7-7 7.08 7.08 0 0 1-3.12 5.82 6.66 6.66 0 0 1-2.51 1.04c-.46.09-.92.14-1.37.14z"/></g></svg>