<svg style="enable-background:new 0 0 512 512" viewBox="0 0 512 512" xml:space="preserve" xmlns="http://www.w3.org/2000/svg"><style>.st0{fill:#16ade1}.st1{fill:#1b3954}</style><g id="Layer_2"><path class="st1" d="M159.23 408.61H38.02a7 7 0 0 1-6.99-7.48l5.64-82.36a7 7 0 0 1 11.91-4.49 70.58 70.58 0 0 0 50.04 20.6 70.65 70.65 0 0 0 50.04-20.59 7 7 0 0 1 9.86 9.94 84.55 84.55 0 0 1-59.89 24.65 84.45 84.45 0 0 1-48.92-15.45l-4.19 61.18H151.7l-3.12-42.22a7 7 0 0 1 13.96-1.04l3.68 49.73a7.04 7.04 0 0 1-6.99 7.53zM98.62 307.52a43.78 43.78 0 0 1-43.73-43.73 43.47 43.47 0 0 1 24.31-39.18 43.78 43.78 0 0 1 58.62 58.61 43.55 43.55 0 0 1-39.2 24.3zm0-73.45c-4.64 0-9.08 1.04-13.19 3.08a29.56 29.56 0 0 0-16.54 26.64 29.76 29.76 0 0 0 29.73 29.73 29.62 29.62 0 0 0 29.73-29.73 29.76 29.76 0 0 0-29.73-29.72z"/><path class="st1" d="M98.62 348.88a84.54 84.54 0 0 1-59.9-24.66 84.43 84.43 0 0 1-25.19-60.43c0-46.92 38.17-85.1 85.09-85.1 9.6 0 19.04 1.59 28.05 4.74a85.8 85.8 0 0 1 52.31 52.31 85.05 85.05 0 0 1 4.74 28.05 84.43 84.43 0 0 1-25.21 60.44 84.51 84.51 0 0 1-59.89 24.65zm0-156.19c-39.2 0-71.09 31.9-71.09 71.1a70.56 70.56 0 0 0 21.05 50.48 70.59 70.59 0 0 0 50.04 20.61 70.65 70.65 0 0 0 50.04-20.59 70.57 70.57 0 0 0 21.06-50.5c0-8.03-1.33-15.92-3.96-23.44a71.68 71.68 0 0 0-43.7-43.7 70.84 70.84 0 0 0-23.44-3.96z"/><path class="st0" d="M98.62 307.52a43.78 43.78 0 0 1-43.73-43.73 43.47 43.47 0 0 1 24.31-39.18 43.78 43.78 0 0 1 58.62 58.61 43.55 43.55 0 0 1-39.2 24.3zm0-73.45c-4.64 0-9.08 1.04-13.19 3.08a29.56 29.56 0 0 0-16.54 26.64 29.76 29.76 0 0 0 29.73 29.73 29.62 29.62 0 0 0 29.73-29.73 29.76 29.76 0 0 0-29.73-29.72z"/><path class="st1" d="M172.38 245.04a6.98 6.98 0 0 1-6.61-4.69 71.68 71.68 0 0 0-43.7-43.7 6.98 6.98 0 0 1-2.4-11.79l75.05-68.26a7 7 0 0 1 9.42 10.36l-67 60.94a86.24 86.24 0 0 1 37.39 37.39l76.45-84.05a56.15 56.15 0 0 1-33.58-40.61 7 7 0 1 1 13.71-2.85 42.75 42.75 0 0 0 33.81 33.05 7.02 7.02 0 0 1 3.92 11.6l-91.26 100.33a7.1 7.1 0 0 1-5.2 2.28zM257.35 112.93a6.98 6.98 0 0 1-4.59-1.72l-.95-.82a7 7 0 0 1-.38-10.2 7.1 7.1 0 0 1 4.98-2.1h.02c1.85 0 3.65.71 4.97 2.02l.48.46.33.32a7 7 0 0 1-4.86 12.04z"/><path class="st1" d="M272.66 145.53c-3.48 0-6.95-.32-10.3-.94a56.15 56.15 0 0 1-44.97-43.96 56.5 56.5 0 0 1 55.27-67.99 7 7 0 1 1 0 14 42.5 42.5 0 0 0-41.56 51.14 42.75 42.75 0 0 0 33.81 33.04 42.4 42.4 0 0 0 23.22-2.2 42.74 42.74 0 0 0 23.32-22.3 42.53 42.53 0 0 0-5.88-44.06 7 7 0 0 1 10.85-8.85 56.54 56.54 0 0 1 12.7 35.66c0 7.98-1.64 15.69-4.87 22.94a56.83 56.83 0 0 1-31 29.64 56.02 56.02 0 0 1-20.59 3.88z"/><path class="st1" d="M294.61 51.77a7 7 0 1 1 0-14h.01a7 7 0 1 1-.01 14zM272.66 118.84a29.71 29.71 0 0 1-19.95-7.67l-.9-.78a6.7 6.7 0 0 1-1.08-1.18 29.6 29.6 0 0 1-7.83-20.12c0-7.94 3.09-15.41 8.71-21.03l.28-.26a29.6 29.6 0 0 1 20.77-8.45 29.6 29.6 0 0 1 28.46 21.05c.86 2.8 1.3 5.73 1.3 8.7a29.7 29.7 0 0 1-29.76 29.74zm-10.95-18.39.24.21a15.75 15.75 0 0 0 25.77-16.18 15.68 15.68 0 0 0-15.07-11.15c-4.2 0-8.15 1.64-11.14 4.62l-.19.18a15.62 15.62 0 0 0-4.42 10.94c0 4.16 1.61 8.1 4.54 11.07l.27.31z"/><path class="st0" d="M272.66 118.84a29.75 29.75 0 0 1-20.01-7.72l-.15-.14-.27-.26-.72-.7a29.66 29.66 0 0 1-8.61-20.94c0-7.94 3.09-15.41 8.71-21.03l.28-.26a29.6 29.6 0 0 1 20.77-8.45 29.6 29.6 0 0 1 28.46 21.05c.86 2.8 1.3 5.73 1.3 8.7 0 7.94-3.09 15.41-8.71 21.04a29.66 29.66 0 0 1-21.05 8.71zm-10.55-18.04a15.77 15.77 0 0 0 25.61-16.32 15.68 15.68 0 0 0-15.07-11.15c-4.2 0-8.15 1.64-11.14 4.62l-.19.18a15.62 15.62 0 0 0-4.42 10.94 15.68 15.68 0 0 0 4.97 11.49l.24.24z"/><path class="st1" d="M363.52 205.96c-1.68 0-3.32-.6-4.61-1.73l-72.84-63.82a7 7 0 0 1 2.07-11.78 42.74 42.74 0 0 0 23.31-22.29 7 7 0 0 1 11.67-1.77l63.04 71.95a7.01 7.01 0 0 1-2.81 11.17 22.21 22.21 0 0 0-13.21 13.58 7.01 7.01 0 0 1-4.82 4.48c-.6.13-1.2.21-1.8.21zm-60.49-69.31 58.38 51.15a35.97 35.97 0 0 1 8.46-8.64l-50.8-57.97a57.19 57.19 0 0 1-16.04 15.46z"/><path class="st1" d="M342.99 301.08h-28.92a7 7 0 0 1-7-7v-59.74a7 7 0 0 1 3.67-6.16l47.85-25.86a6.98 6.98 0 0 1 10.33 6.16c0 7.96 4.05 15.11 10.84 19.18a7.01 7.01 0 0 1-.27 12.16l-29.5 15.94v38.31a7 7 0 0 1-7 7.01zm-21.92-14h14.92v-35.49a7 7 0 0 1 3.67-6.16l24.2-13.08a36.76 36.76 0 0 1-7.28-13.03l-35.51 19.19v48.57zM468.37 301.08h-28.92a7 7 0 0 1-7-7v-38.31l-29.48-15.93a7 7 0 0 1-.28-12.16 22.17 22.17 0 0 0 10.83-19.14 7.04 7.04 0 0 1 10.33-6.21l47.85 25.86a7 7 0 0 1 3.67 6.16v59.74a7 7 0 0 1-7 6.99zm-21.91-14h14.92v-48.56l-35.51-19.19a36.77 36.77 0 0 1-7.27 13.04l24.19 13.07a7 7 0 0 1 3.67 6.16v35.48z"/><path class="st0" d="M391.23 244.83a36.3 36.3 0 0 1-18.68-5.17 36.49 36.49 0 0 1-17.63-31.12 36.19 36.19 0 0 1 23.51-33.97 35.8 35.8 0 0 1 12.8-2.34 36.37 36.37 0 0 1 36.3 36.24V208.54a36.5 36.5 0 0 1-17.62 31.13 36.37 36.37 0 0 1-18.68 5.16zm0-58.6c-2.71 0-5.36.48-7.85 1.43a22.22 22.22 0 0 0-14.46 20.84c0 7.94 4.05 15.08 10.84 19.15a22.3 22.3 0 0 0 33.77-19.13l7-.06-7 .01a22.34 22.34 0 0 0-22.3-22.24zM439.46 368.38H343a7 7 0 0 1-7-7v-86.97a7 7 0 0 1 7-7h96.46a7 7 0 0 1 7 7v86.97a7 7 0 0 1-7 7zm-89.47-14h82.46v-72.97h-82.46v72.97z"/><path class="st1" d="M290.98 412.35a7 7 0 1 1 .05-14 7 7 0 0 1-.05 14z"/><g><path class="st1" d="M491.47 479.36H290.98a7 7 0 0 1-7-7v-46.18a7 7 0 1 1 14 0v39.18h186.48v-96.97H297.98v16.13a7 7 0 1 1-14 0v-23.13a7 7 0 0 1 7-7h200.48a7 7 0 0 1 7 7v110.97a7 7 0 0 1-6.99 7z"/></g><g><path class="st1" d="M176.72 479.36H20.53a7 7 0 0 1-7-7v-70.75a7 7 0 0 1 7-7h156.19a7 7 0 0 1 7 7v70.75a7 7 0 0 1-7 7zm-149.19-14h142.19v-56.75H27.53v56.75z"/></g></g></svg>