<svg style="enable-background:new 0 0 512 512" viewBox="0 0 512 512" xml:space="preserve" xmlns="http://www.w3.org/2000/svg"><style>.st0{fill:#16ade1}.st1{fill:#1b3954}</style><g id="Layer_2"><path class="st1" d="M459.12 331.78H358.96a6.98 6.98 0 0 1-5.02-2.13c-15.25-15.72-24.4-33.71-26.48-52.02-.45-3.94-.57-7.84-.68-11.61-.1-3.25-.19-6.33-.48-9.34a6.99 6.99 0 0 1 6.97-7.68h125.84a7 7 0 0 1 7.01 7v68.78a7 7 0 0 1-7 7zm-97.14-14h90.13V263H340.69l.08 2.59c.11 3.65.22 7.09.6 10.46 1.64 14.42 8.75 28.79 20.61 41.73z"/><path class="st1" d="M459.1 388.35a7 7 0 0 1-3.21-.78c-4.5-2.32-9.36-4.66-15.29-7.38-4.43-2.02-8.99-4.04-13.39-6-13.06-5.79-26.57-11.77-39.26-18.98a7 7 0 0 1-3.54-6.09v-24.36a7 7 0 0 1 7-7h67.7a7 7 0 0 1 7 7v56.58a7 7 0 0 1-7.01 7.01zm-60.69-43.34c11.1 6.03 22.96 11.29 34.47 16.39 4.44 1.97 9.04 4 13.54 6.06 2 .91 3.88 1.79 5.68 2.64v-38.33h-53.7v13.24z"/><path class="st1" d="M391.41 356.13a7 7 0 0 1-3.46-.91 180.39 180.39 0 0 1-16.61-10.59 129.57 129.57 0 0 1-17.4-14.98 7 7 0 0 1 5.03-11.87h32.44a7 7 0 0 1 7 7v24.35a7 7 0 0 1-7 7zm-13.92-24.35 2.02 1.49a155.3 155.3 0 0 0 4.89 3.38v-4.86h-6.91zM120.58 235.35c-.31 0-.62-.02-.93-.06a255.76 255.76 0 0 1-69.6-19.64 7 7 0 0 1-4.16-6.4v-22.02a7 7 0 0 1 7-7h67.69a7 7 0 0 1 7 7v41.12a7 7 0 0 1-7 7zm-60.69-30.7a240.96 240.96 0 0 0 53.7 15.57v-25.99h-53.7v10.42zM459.11 263h-67.7a7 7 0 0 1-7-7v-68.78a7 7 0 0 1 7-7h67.7a7 7 0 0 1 7 7v12.26a7 7 0 1 1-14 0v-5.26h-53.7V249h53.7v-4.75a7 7 0 1 1 14 0V256a7 7 0 0 1-7 7z"/><path class="st1" d="M459.11 228.61a6.99 6.99 0 1 1 2.67-13.46 6.66 6.66 0 0 1 2.28 1.51 7 7 0 0 1-4.95 11.95zM391.41 263.01h-58.14a7 7 0 0 1-6.98-6.48 43.54 43.54 0 0 0-1.24-7.25c-5.42-20.08-29.31-30.84-50.1-31.09-5.61-.05-11.44.38-17.87 1.37a7 7 0 0 1-8.06-6.91v-25.41a7 7 0 0 1 7-7h135.4a7 7 0 0 1 7 7V256a7.03 7.03 0 0 1-7.01 7.01zm-52.07-14h45.07v-54.78H263v10.48c4.18-.4 8.18-.57 12.11-.52 25.25.3 55.87 13.4 63.44 41.43.3 1.09.56 2.22.79 3.39z"/><path class="st1" d="M153.26 237.54c-11.13 0-22.34-.75-33.59-2.26a7 7 0 0 1-6.07-6.94v-41.12a7 7 0 0 1 7-7H256a7 7 0 0 1 7 7v25.41a7 7 0 0 1-5.94 6.92c-10.36 1.59-20.96 4.43-31.22 7.17-6.56 1.75-13.34 3.56-20.11 5.08a240.34 240.34 0 0 1-52.47 5.74zm-25.67-15.4a230.06 230.06 0 0 0 75.1-4.01 485.98 485.98 0 0 0 19.55-4.94c8.72-2.33 17.68-4.72 26.77-6.45v-12.52H127.59v27.92zM120.59 125.45h-67.7a7 7 0 0 1-7-7V49.67a7 7 0 0 1 7-7h67.7a7 7 0 0 1 7 7v68.77a7 7 0 0 1-7 7.01zm-60.7-14h53.7V56.67h-53.7v54.78z"/><path class="st1" d="M256 125.45H120.59a7 7 0 0 1-7-7V49.68a7 7 0 0 1 7-7H256a7 7 0 0 1 7 7v68.77a7 7 0 0 1-7 7zm-128.41-14H249V56.68H127.59v54.77z"/><path class="st1" d="M188.3 194.22H52.89a7 7 0 0 1-7-7v-42.21a7 7 0 1 1 14 0v35.21H181.3v-54.77H52.89a7 7 0 1 1 0-14H188.3a7 7 0 0 1 7 7v68.77a7 7 0 0 1-7 7zM459.11 194.22h-135.4a7 7 0 0 1-7-7v-68.77a7 7 0 0 1 7-7h135.41a7 7 0 0 1 7 7v68.77a7.01 7.01 0 0 1-7.01 7zm-128.4-14h121.41v-54.77H330.71v54.77z"/><path class="st1" d="M323.71 194.22H188.3a7 7 0 0 1-7-7v-68.77a7 7 0 0 1 7-7h135.41a7 7 0 0 1 7 7v68.77a7 7 0 0 1-7 7zm-128.41-14h121.41v-54.77H195.3v54.77z"/><path class="st0" d="M459.12 469.33a7 7 0 0 1-7-7v-68.41l-.01-.37v-7.9a402.12 402.12 0 0 0-11.5-5.46c-4.43-2.02-8.99-4.04-13.39-6-13.06-5.79-26.57-11.77-39.26-18.98a181.73 181.73 0 0 1-16.61-10.58 129.57 129.57 0 0 1-17.4-14.98c-15.24-15.71-24.39-33.7-26.47-52.02-.45-3.94-.57-7.84-.68-11.61-.1-3.25-.19-6.33-.48-9.34a7 7 0 1 1 13.94-1.34c.33 3.47.44 6.92.54 10.25.11 3.65.22 7.09.6 10.46 1.73 15.21 9.55 30.38 22.62 43.85 4.64 4.79 9.86 9.29 15.52 13.36 4.68 3.37 9.7 6.57 15.35 9.78 12.09 6.87 25.27 12.71 38.02 18.36 4.44 1.97 9.04 4 13.54 6.06a364.36 364.36 0 0 1 15.89 7.67 7 7 0 0 1 3.79 6.22v11.83l.01.37v68.78a7.04 7.04 0 0 1-7.02 7z"/><path class="st0" d="M419.06 469.33H52.88a7 7 0 0 1-7-7v-68.78l.01-.37v-68.03l-.01-.37V256l.01-.37v-46.38a7 7 0 0 1 9.85-6.4 239.9 239.9 0 0 0 33.65 12.02 242.95 242.95 0 0 0 32.13 6.55 231.05 231.05 0 0 0 81.17-3.27 485.98 485.98 0 0 0 19.55-4.94c10.62-2.84 21.59-5.77 32.7-7.48 7.2-1.11 13.8-1.61 20.17-1.53 25.25.3 55.87 13.4 63.44 41.43a57.8 57.8 0 0 1 1.68 9.72 7 7 0 1 1-13.94 1.3 42.62 42.62 0 0 0-1.26-7.37c-5.42-20.08-29.31-30.84-50.1-31.09-5.61-.05-11.44.38-17.87 1.37-10.36 1.6-20.97 4.43-31.22 7.17-6.56 1.75-13.34 3.56-20.11 5.08a245 245 0 0 1-85.95 3.5l-.13-.02a255.76 255.76 0 0 1-59.76-15.52V256l-.01.37v68.04l.01.37v68.77l-.01.37v61.41h359.17a7 7 0 1 1 .01 14z"/></g></svg>