<svg style="enable-background:new 0 0 512 512" viewBox="0 0 512 512" xml:space="preserve" xmlns="http://www.w3.org/2000/svg"><style>.st0{fill:#16ade1}.st1{fill:#1b3954}</style><g id="Layer_2"><path class="st1" d="M121.1 405.34a7 7 0 0 1-7-7c0-23.88-19.42-43.3-43.3-43.3s-43.3 19.42-43.3 43.3a7 7 0 1 1-14 0V113.66c0-31.6 25.7-57.3 57.3-57.3s57.3 25.7 57.3 57.3v284.68a7 7 0 0 1-7 7zm-50.3-64.3a57.18 57.18 0 0 1 43.3 19.81V113.66c0-23.88-19.42-43.3-43.3-43.3s-43.3 19.42-43.3 43.3v247.19a57.18 57.18 0 0 1 43.3-19.81z"/><path class="st1" d="M491.5 455.64a7 7 0 0 1-7-7V120.66H128.1v277.68a7 7 0 1 1-14 0c0-23.88-19.42-43.3-43.3-43.3s-43.3 19.42-43.3 43.3a43.34 43.34 0 0 0 43.3 43.3h380.67a7 7 0 1 1 0 14H70.8a57.37 57.37 0 0 1-57.3-57.3c0-31.6 25.71-57.3 57.3-57.3a57.18 57.18 0 0 1 43.3 19.81V113.66a7 7 0 0 1 7-7h370.4a7 7 0 0 1 7 7v334.98a7 7 0 0 1-7 7z"/><path class="st1" d="M227.3 235.68h-68.43a7 7 0 0 1-7-7v-68.43a7 7 0 0 1 7-7h68.43a7 7 0 0 1 7 7v68.43a7 7 0 0 1-7 7zm-61.43-14h54.43v-54.43h-54.43v54.43z"/><path class="st0" d="M286.53 405.73H234.7a7 7 0 1 1 0-14h44.83V278.07H165.87v113.66h9.34a7 7 0 1 1 0 14h-16.34a7 7 0 0 1-7-7V271.07a7 7 0 0 1 7-7h127.66a7 7 0 0 1 7 7v127.66a7 7 0 0 1-7 7z"/><path class="st0" d="M201.64 405.73a7.04 7.04 0 0 1-6.86-5.64 6.28 6.28 0 0 1 0-2.73 7.32 7.32 0 0 1 1.04-2.52 7 7 0 1 1 5.82 10.89zM436.66 235.68H256a7 7 0 0 1-7-7v-68.43a7 7 0 0 1 7-7h88.4a7 7 0 1 1 0 14H263v54.43h166.66v-54.43h-32.32a7 7 0 1 1 0-14h39.32a7 7 0 0 1 7 7v68.43a7 7 0 0 1-7 7z"/><path class="st0" d="M369.26 167.26a7 7 0 0 1-5.82-3.12 6.96 6.96 0 0 1 7.18-10.74 7.32 7.32 0 0 1 2.52 1.04 6.82 6.82 0 0 1 2.58 3.14 7.35 7.35 0 0 1 .53 2.68 7.14 7.14 0 0 1-.53 2.68 6.96 6.96 0 0 1-6.46 4.32z"/><path class="st1" d="M368.23 409.04h-38.3a7 7 0 0 1-7-7V271.07a7 7 0 0 1 7-7h38.3a7 7 0 0 1 7 7v130.98a7 7 0 0 1-7 6.99zm-31.29-14h24.3V278.07h-24.3v116.97zM436.66 409.04h-38.3a7 7 0 0 1-7-7V271.07a7 7 0 0 1 7-7h38.3a7 7 0 0 1 7 7v130.98a7 7 0 0 1-7 6.99zm-31.3-14h24.3V278.07h-24.3v116.97z"/><g><path class="st1" d="M67.81 314.87a7 7 0 0 1-7-7V121.32a7 7 0 1 1 14 0v186.55a7 7 0 0 1-7 7z"/></g><g><path class="st1" d="M67.81 106.24a7.04 7.04 0 0 1-4.95-2.05 7.04 7.04 0 0 1 0-9.9 7.07 7.07 0 0 1 7.63-1.52 6.96 6.96 0 0 1 2.27 1.52 7.04 7.04 0 0 1 0 9.9 7 7 0 0 1-4.95 2.05z"/></g></g></svg>